<?xml version="1.0" standalone="no"?>
<!DOCTYPE svg PUBLIC "-//W3C//DTD SVG 20010904//EN"
 "http://www.w3.org/TR/2001/REC-SVG-20010904/DTD/svg10.dtd">
<svg version="1.0" xmlns="http://www.w3.org/2000/svg"
 width="1200.000000pt" height="1200.000000pt" viewBox="0 0 1200.000000 1200.000000"
 preserveAspectRatio="xMidYMid meet">
<metadata>
Created by potrace 1.14, written by Peter Selinger 2001-2017
</metadata>
<g transform="translate(0.000000,1200.000000) scale(0.100000,-0.100000)"
fill="#000000" stroke="none">
<path d="M0 6000 l0 -6000 6000 0 6000 0 0 6000 0 6000 -6000 0 -6000 0 0
-6000z m4364 3328 c-130 -258 -216 -595 -231 -905 l-6 -123 -219 0 -220 0 7
88 c15 199 64 423 126 580 58 145 148 314 211 395 l30 37 169 0 169 0 -36 -72z
m583 55 c-3 -10 -22 -61 -42 -113 -83 -215 -149 -554 -162 -830 l-6 -140 -270
0 -269 0 6 93 c27 367 125 731 262 965 l25 42 231 0 c215 0 230 -1 225 -17z
m547 -61 c-62 -216 -112 -553 -120 -812 -3 -91 -7 -175 -10 -187 l-4 -23 -270
0 c-148 0 -271 3 -273 8 -6 11 10 284 23 370 17 119 49 278 75 372 28 101 91
284 111 322 l15 28 238 0 238 0 -23 -78z m466 -472 l0 -550 -261 0 -262 0 7
148 c9 187 29 386 56 543 21 120 70 331 90 383 l10 26 180 0 180 0 0 -550z
m450 524 c62 -162 128 -591 145 -941 l7 -133 -261 0 -261 0 0 550 0 550 180 0
180 0 10 -26z m587 -61 c102 -254 166 -566 180 -866 l6 -147 -274 2 -274 3 -7
170 c-11 287 -58 615 -118 828 l-27 97 240 -2 241 -3 33 -82z m575 -33 c125
-251 194 -530 223 -907 l5 -73 -269 0 -268 0 -7 133 c-17 309 -77 619 -167
852 -17 44 -33 88 -36 98 -5 16 9 17 228 15 l234 -3 57 -115z m421 45 c64 -93
168 -304 206 -418 58 -175 87 -325 106 -539 l6 -68 -219 0 -219 0 -7 115 c-18
316 -93 623 -216 883 l-49 102 172 -2 172 -3 48 -70z m-3583 -1735 l0 -640
-105 0 -105 0 0 640 0 640 105 0 105 0 0 -640z m3390 0 l0 -640 -105 0 -105 0
0 640 0 640 105 0 105 0 0 -640z m-590 324 c41 -9 89 -81 126 -191 22 -65 26
-96 26 -188 0 -161 -36 -301 -124 -482 -48 -100 -51 -103 -83 -103 l-33 0 19
62 c64 204 63 439 -2 615 -26 70 -90 182 -130 227 -16 19 -29 36 -29 40 0 20
160 34 230 20z m-249 -125 c51 -63 84 -125 115 -215 23 -66 28 -102 32 -214 5
-141 -8 -239 -47 -353 l-18 -52 -110 -3 -110 -3 34 92 c71 189 97 361 74 484
-16 85 -62 177 -116 229 l-46 45 43 24 c85 48 82 48 98 28 8 -10 31 -38 51
-62z m520 -53 l29 -39 0 -374 0 -373 -115 0 c-63 0 -115 2 -115 5 0 3 12 29
26 57 129 254 168 543 101 741 -15 42 -27 80 -27 84 0 11 70 -59 101 -101z
m-870 55 c123 -44 202 -124 236 -240 23 -80 13 -248 -22 -365 -38 -130 -84
-236 -102 -236 -11 0 -14 6 -9 23 30 112 31 353 1 477 -33 135 -114 263 -220
346 l-39 31 45 -6 c24 -4 74 -18 110 -30z m-233 -17 c137 -67 233 -198 267
-362 17 -84 20 -267 5 -362 -17 -103 -14 -100 -74 -100 l-53 0 -17 93 c-51
278 -178 519 -351 667 -29 25 -54 50 -55 55 -3 16 131 55 170 50 19 -2 68 -21
108 -41z m-1606 15 c26 -14 45 -61 53 -136 7 -60 6 -65 -43 -165 -90 -185
-123 -332 -103 -458 6 -36 11 -68 11 -72 0 -5 -45 -8 -100 -8 l-100 0 0 359 0
359 49 35 c73 53 157 93 199 96 7 1 22 -4 34 -10z m867 -43 c65 -34 125 -134
163 -274 29 -105 31 -332 5 -444 l-18 -78 -200 0 c-109 0 -199 1 -199 3 0 1 7
34 15 72 21 100 19 257 -5 376 l-20 98 25 63 c46 113 124 198 183 198 13 0 36
-7 51 -14z m-466 -26 c19 -16 50 -60 69 -97 102 -195 132 -449 76 -635 l-11
-38 -267 0 -268 0 -11 44 c-42 168 41 428 199 625 42 54 138 131 162 131 10 0
33 -13 51 -30z m995 -125 c128 -142 239 -387 267 -592 6 -50 6 -53 -15 -53
-39 0 -231 141 -358 264 -205 198 -238 367 -95 485 l36 30 60 -42 c32 -23 80
-64 105 -92z m-2027 -712 c16 -18 3698 -20 3717 -1 9 9 12 78 12 247 0 198 2
233 13 221 8 -8 81 -123 162 -255 82 -132 162 -260 178 -285 60 -91 70 -155
37 -243 -21 -57 -63 -103 -120 -133 -34 -18 -106 -19 -2140 -19 -2035 0 -2106
1 -2140 19 -111 59 -164 181 -127 291 14 40 190 329 346 570 l46 70 3 -234 c1
-152 6 -239 13 -248z m1866 280 c54 -54 134 -123 177 -153 l77 -55 -192 -3
c-106 -1 -194 0 -197 2 -2 3 1 27 8 53 6 26 14 94 17 151 3 56 7 102 8 102 1
0 47 -44 102 -97z m1993 -1603 l0 -770 -2000 0 -2000 0 0 770 0 770 2000 0
2000 0 0 -770z m-2357 -890 c2 -3 7 -28 10 -57 7 -65 -12 -78 -42 -27 -11 19
-32 39 -47 44 -55 21 -100 -45 -56 -82 9 -8 38 -22 63 -32 84 -30 119 -96 93
-171 -22 -64 -45 -80 -118 -80 -35 0 -70 6 -78 12 -8 7 -24 9 -37 6 -22 -6
-23 -5 -16 53 4 32 9 62 12 67 10 17 31 5 37 -23 9 -46 51 -84 84 -75 38 9 52
24 52 54 0 37 -7 43 -86 85 -77 40 -94 63 -94 124 0 76 55 113 157 109 34 -2
64 -5 66 -7z m2038 -118 c-2 -73 0 -122 6 -122 17 0 55 47 44 55 -6 3 -11 13
-11 21 0 12 12 14 62 12 68 -3 87 -21 41 -39 -15 -5 -40 -22 -56 -37 l-27 -26
52 -53 c29 -29 58 -53 65 -53 7 0 13 -9 13 -20 0 -19 -5 -21 -67 -18 -62 3
-68 5 -66 24 1 12 -10 33 -27 49 l-30 29 0 -32 c0 -22 5 -32 15 -32 8 0 15 -9
15 -20 0 -18 -7 -20 -65 -20 -58 0 -65 2 -65 20 0 11 7 20 15 20 13 0 15 23
15 144 0 138 -1 146 -22 160 -15 10 -19 19 -12 26 12 12 86 39 99 36 6 -2 9
-49 6 -124z m-2881 84 c6 -8 10 -25 8 -38 -2 -19 -10 -24 -40 -26 -33 -3 -38
0 -44 23 -4 15 -1 31 6 40 16 19 54 19 70 1z m3398 -89 c3 -24 8 -27 38 -27
31 0 35 -3 32 -22 -2 -18 -11 -24 -35 -26 l-33 -3 0 -81 0 -80 30 6 c25 4 30
2 30 -13 0 -39 -87 -54 -120 -21 -17 17 -20 33 -20 104 0 75 -2 84 -20 89 -29
8 -25 23 15 47 19 12 40 31 46 42 14 26 33 18 37 -15z m-4280 -32 c17 -13 26
-13 43 -4 16 8 27 8 44 -1 18 -10 28 -9 53 4 39 20 52 20 52 1 0 -14 3 -14 24
1 34 22 70 15 74 -14 5 -33 -15 -52 -52 -49 l-31 2 -3 -72 c-3 -68 -1 -73 18
-73 13 0 20 -7 20 -20 0 -18 -7 -20 -75 -20 -68 0 -75 2 -75 20 0 11 7 20 15
20 13 0 15 13 13 73 l-3 72 -37 0 c-35 0 -38 -2 -38 -28 0 -45 -49 -87 -100
-87 -29 0 -40 -4 -38 -12 3 -8 31 -15 72 -18 77 -6 106 -28 106 -84 0 -63 -58
-106 -143 -106 -110 0 -155 57 -99 123 12 13 13 20 4 29 -17 17 -15 42 7 69
17 21 18 26 5 40 -7 8 -16 29 -20 45 -14 72 99 134 164 89z m488 -10 c29 -18
54 -71 54 -110 0 -46 -38 -105 -78 -122 -44 -18 -105 -12 -134 14 -49 43 -61
126 -28 181 37 60 125 77 186 37z m259 9 c17 -11 25 -26 25 -45 0 -25 -4 -29
-29 -29 -20 0 -32 6 -36 19 -8 28 -37 36 -52 15 -18 -24 -16 -89 2 -124 12
-23 22 -30 46 -30 17 0 39 5 50 10 15 9 21 7 25 -5 8 -20 30 -19 38 1 3 9 6
38 6 65 0 37 -5 53 -20 66 -28 25 -25 32 23 53 68 31 67 32 67 -89 0 -102 1
-109 21 -114 12 -3 19 -12 17 -19 -3 -9 -28 -14 -76 -16 -62 -2 -72 -1 -72 14
0 16 -1 16 -20 -1 -28 -25 -99 -31 -139 -10 -57 29 -78 118 -43 183 34 65 114
91 167 56z m376 -13 c19 -20 29 -40 29 -60 l0 -31 -70 0 c-62 0 -70 -2 -70
-19 0 -27 38 -71 62 -71 12 0 29 7 39 16 18 16 49 13 49 -4 0 -19 -60 -63 -93
-69 -98 -15 -162 84 -121 186 32 81 120 107 175 52z m197 13 c14 -10 22 -25
22 -45 0 -36 -18 -38 -50 -4 -25 27 -45 32 -55 15 -10 -16 13 -38 46 -45 68
-15 90 -96 40 -146 -56 -56 -151 -30 -151 41 0 38 31 42 48 6 12 -27 49 -43
63 -29 16 16 -1 42 -37 53 -40 14 -74 53 -74 87 0 14 13 37 29 54 34 33 83 39
119 13z m847 6 c4 -7 12 -7 25 0 47 25 114 -3 137 -57 36 -88 -20 -190 -110
-200 l-47 -6 0 -48 c0 -42 3 -49 20 -49 13 0 20 -7 20 -20 0 -19 -5 -21 -72
-18 -60 2 -73 6 -76 21 -2 12 3 17 17 17 20 0 21 5 21 140 0 128 -2 142 -20
157 -27 24 -26 30 18 52 42 23 58 25 67 11z m364 -6 c26 -19 51 -71 44 -91 -4
-9 -27 -13 -74 -13 -61 0 -69 -2 -69 -19 0 -29 39 -71 66 -71 13 0 33 9 45 21
25 25 45 13 34 -21 -10 -30 -63 -60 -108 -60 -31 0 -46 7 -73 34 -31 31 -34
40 -34 90 0 32 7 70 16 87 26 52 107 75 153 43z m157 1 c5 -13 8 -13 27 0 27
19 46 19 68 -1 15 -14 20 -14 54 0 27 12 41 13 51 5 9 -7 18 -7 33 0 28 15 63
14 89 -5 20 -14 24 -14 44 0 32 23 73 20 105 -8 26 -23 28 -31 32 -110 2 -67
6 -86 18 -86 8 0 13 -7 11 -17 -3 -15 -16 -19 -66 -21 -57 -3 -62 -1 -62 18 0
11 5 20 10 20 6 0 10 33 10 80 0 44 -2 80 -4 80 -2 0 -11 3 -19 6 -8 3 -22 -2
-31 -11 -22 -23 -23 -155 -1 -155 8 0 15 -9 15 -20 0 -18 -7 -20 -65 -20 -58
0 -65 2 -65 20 0 12 7 20 16 20 14 0 16 11 12 75 -4 81 -17 107 -46 89 -13 -9
-18 -28 -20 -88 -2 -48 1 -76 8 -76 5 0 10 -9 10 -20 0 -18 -7 -20 -65 -20
-58 0 -65 2 -65 20 0 11 7 20 15 20 12 0 15 14 15 69 0 71 -15 101 -42 85 -7
-5 -26 -8 -43 -9 l-30 0 -3 -72 c-3 -68 -1 -73 18 -73 13 0 20 -7 20 -20 0
-19 -5 -21 -77 -18 -52 2 -78 7 -81 16 -2 7 5 16 17 19 19 5 21 13 21 73 0 48
-4 71 -15 80 -23 19 -19 28 23 49 45 24 51 25 58 6z m710 0 c18 -12 23 -29 28
-105 5 -58 12 -90 19 -90 7 0 22 -3 35 -6 21 -6 22 -4 22 65 0 54 -4 73 -15
77 -30 12 -16 41 27 59 38 15 43 15 54 1 10 -15 13 -15 24 -1 17 20 59 16 74
-7 16 -27 -18 -59 -55 -51 l-29 6 0 -76 c0 -66 2 -75 20 -80 11 -3 20 -13 20
-22 0 -16 -42 -19 -207 -16 -60 1 -78 1 -118 -2 -34 -2 -41 2 -52 25 -19 39
-2 73 57 110 37 23 50 37 50 54 0 19 -5 24 -25 24 -20 0 -25 -5 -25 -25 0 -27
-30 -48 -54 -39 -37 14 -10 70 49 102 28 16 77 15 101 -3z m713 -1 c26 -19 51
-71 44 -91 -4 -9 -27 -13 -74 -13 -61 0 -69 -2 -69 -19 0 -29 39 -71 66 -71
13 0 33 9 45 21 25 25 45 13 34 -21 -10 -30 -63 -60 -108 -60 -31 0 -46 7 -73
34 -31 31 -34 40 -34 90 0 32 7 70 16 87 26 52 107 75 153 43z m-2229 -82 c0
-99 12 -129 48 -118 20 7 22 14 22 86 0 60 -3 79 -15 84 -8 3 -15 12 -15 21 0
12 12 15 55 15 l55 0 0 -100 c0 -92 2 -100 22 -111 20 -11 20 -12 4 -24 -26
-19 -88 -29 -96 -15 -6 9 -13 9 -30 0 -30 -16 -86 -4 -105 23 -10 15 -15 45
-15 97 0 64 -3 78 -20 93 -30 25 -16 37 41 37 l49 0 0 -88z m-950 -512 c0 -5
-22 -10 -50 -10 l-50 0 0 -35 c0 -35 0 -35 45 -35 25 0 45 -4 45 -10 0 -5 -20
-10 -45 -10 l-45 0 0 -40 0 -40 50 0 c28 0 50 -4 50 -10 0 -6 -27 -10 -60 -10
l-60 0 0 105 0 105 60 0 c33 0 60 -4 60 -10z m1260 -95 c0 -87 -3 -105 -15
-105 -12 0 -15 17 -15 92 0 89 0 91 -19 74 -11 -10 -22 -13 -25 -8 -7 11 41
51 62 52 9 0 12 -27 12 -105z m399 79 c15 -19 21 -41 21 -76 0 -41 -5 -54 -29
-79 -29 -29 -91 -42 -91 -19 0 6 13 10 28 10 31 0 55 21 67 58 6 21 5 23 -13
13 -31 -16 -60 -13 -82 9 -26 26 -25 51 1 84 13 17 30 26 49 26 19 0 36 -9 49
-26z m360 16 c43 -22 52 -112 17 -166 -18 -27 -81 -43 -99 -25 -8 8 -3 11 21
11 37 0 72 30 72 62 0 17 -3 19 -12 10 -33 -33 -98 0 -98 50 0 51 53 83 99 58z
m390 -16 c15 -19 21 -41 21 -76 0 -41 -5 -54 -29 -79 -29 -29 -91 -42 -91 -19
0 6 13 10 28 10 31 0 55 21 67 58 6 21 5 23 -13 13 -31 -16 -60 -13 -82 9 -26
26 -25 51 1 84 13 17 30 26 49 26 19 0 36 -9 49 -26z m-1773 -24 c13 0 24 -4
24 -10 0 -5 -11 -10 -25 -10 -23 0 -25 -4 -25 -44 0 -57 8 -76 31 -76 10 0 19
-4 19 -10 0 -14 -43 -13 -58 2 -7 7 -12 38 -12 69 0 37 -4 59 -12 61 -9 3 -8
9 5 22 9 10 18 23 18 29 1 7 4 2 6 -10 3 -16 11 -23 29 -23z m-299 -16 c2 -7
-10 -11 -33 -10 -51 1 -53 -19 -6 -43 48 -24 59 -47 35 -73 -12 -14 -28 -18
-57 -16 -55 4 -58 25 -4 24 54 -1 65 25 18 44 -34 14 -60 36 -60 50 0 5 7 16
16 25 18 18 85 17 91 -1z m588 -124 c0 -7 -6 -15 -12 -17 -8 -3 -13 4 -13 17
0 13 5 20 13 18 6 -3 12 -11 12 -18z"/>
<path d="M5710 5990 c-714 -42 -1240 -223 -1240 -426 0 -131 202 -254 555
-339 463 -112 1160 -130 1720 -45 423 65 735 202 777 341 9 32 8 46 -6 83 -83
216 -667 377 -1421 390 -137 2 -311 1 -385 -4z"/>
<path d="M3842 4478 c-19 -19 -15 -87 4 -95 21 -8 44 22 44 57 0 24 -16 50
-30 50 -3 0 -11 -5 -18 -12z"/>
<path d="M3810 4225 c-16 -19 -4 -52 21 -60 28 -9 84 2 99 20 8 10 9 19 0 34
-8 17 -20 21 -59 21 -30 0 -53 -5 -61 -15z"/>
<path d="M4306 4477 c-23 -17 -33 -97 -16 -136 15 -37 38 -46 61 -25 24 22 26
119 3 152 -18 26 -24 27 -48 9z"/>
<path d="M4940 4471 c-10 -19 -8 -21 20 -21 25 0 31 4 28 17 -5 26 -35 28 -48
4z"/>
<path d="M6108 4469 c-27 -15 -26 -144 1 -159 27 -14 37 -13 55 6 29 29 17
133 -18 156 -14 10 -17 9 -38 -3z"/>
<path d="M6372 4478 c-20 -20 -14 -28 18 -28 28 0 30 2 20 20 -12 23 -21 25
-38 8z"/>
<path d="M7248 4366 c-20 -20 -23 -42 -7 -52 17 -10 31 11 27 42 -3 26 -4 27
-20 10z"/>
<path d="M7952 4478 c-20 -20 -14 -28 18 -28 28 0 30 2 20 20 -12 23 -21 25
-38 8z"/>
<path d="M6432 3898 c-7 -7 -12 -25 -12 -40 0 -21 6 -29 24 -34 53 -13 86 35
48 69 -22 20 -43 22 -60 5z"/>
<path d="M6806 3894 c-30 -30 -13 -74 29 -74 44 0 63 60 26 80 -27 14 -37 13
-55 -6z"/>
<path d="M7182 3898 c-7 -7 -12 -25 -12 -40 0 -21 6 -29 24 -34 53 -13 86 35
48 69 -22 20 -43 22 -60 5z"/>
</g>
</svg>
